HIERARCHY
ROOT Hips
{
	OFFSET	0.00	0.00	0.00
	CHANNELS 6 Xposition Yposition Zposition Zrotation Xrotation Yrotation
	JOINT LeftUpLeg
	{
		OFFSET	 0.126116	-0.065224	 0.014019
		CHANNELS 3 Zrotation Xrotation Yrotation
		JOINT LeftLeg
		{
			OFFSET	 0.000000	 0.569914	 0.000000
			CHANNELS 3 Zrotation Xrotation Yrotation
			JOINT LeftFoot
			{
				OFFSET	 0.000000	 0.544423	 0.000000
				CHANNELS 3 Zrotation Xrotation Yrotation
				JOINT LeftToeBase
				{
					OFFSET	 0.000000	 0.207117	 0.000000
					CHANNELS 3 Zrotation Xrotation Yrotation
					End Site
					{
						OFFSET	 0.000000	 0.207117	 0.000000
					}
				}
			}
		}
	}
	JOINT RightUpLeg
	{
		OFFSET	-0.124023	-0.065224	 0.008373
		CHANNELS 3 Zrotation Xrotation Yrotation
		JOINT RightLeg
		{
			OFFSET	 0.000000	 0.570047	 0.000000
			CHANNELS 3 Zrotation Xrotation Yrotation
			JOINT RightFoot
			{
				OFFSET	 0.000000	 0.544354	 0.000000
				CHANNELS 3 Zrotation Xrotation Yrotation
				JOINT RightToeBase
				{
					OFFSET	 0.000000	 0.207540	 0.000000
					CHANNELS 3 Zrotation Xrotation Yrotation
					End Site
					{
						OFFSET	 0.000000	 0.207540	 0.000000
					}
				}
			}
		}
	}
	JOINT Spine
	{
		OFFSET	 0.000184	 0.117403	 0.007763
		CHANNELS 3 Zrotation Xrotation Yrotation
		JOINT Spine1
		{
			OFFSET	 0.000000	 0.137269	 0.000000
			CHANNELS 3 Zrotation Xrotation Yrotation
			JOINT Spine2
			{
				OFFSET	 0.000000	 0.156879	 0.000000
				CHANNELS 3 Zrotation Xrotation Yrotation
				JOINT LeftShoulder
				{
					OFFSET	 0.080501	 0.160143	 0.002496
					CHANNELS 3 Zrotation Xrotation Yrotation
					JOINT LeftArm
					{
						OFFSET	 0.000000	 0.164363	 0.000000
						CHANNELS 3 Zrotation Xrotation Yrotation
						JOINT LeftForeArm
						{
							OFFSET	 0.000000	 0.364576	 0.000000
							CHANNELS 3 Zrotation Xrotation Yrotation
							JOINT LeftHand
							{
								OFFSET	 0.000000	 0.360812	 0.000000
								CHANNELS 3 Zrotation Xrotation Yrotation
								JOINT LeftHandIndex1
								{
									OFFSET	 0.000000	 0.086006	 0.000000
									CHANNELS 3 Zrotation Xrotation Yrotation
									JOINT LeftHandIndex2
									{
										OFFSET	 0.000000	 0.047237	 0.000000
										CHANNELS 3 Zrotation Xrotation Yrotation
										JOINT LeftHandIndex3
										{
											OFFSET	-0.004284	 0.038165	 0.000551
											CHANNELS 3 Zrotation Xrotation Yrotation
											End Site
											{
												OFFSET	-0.004284	 0.038165	 0.000551
											}
										}
									}
								}
							}
						}
					}
				}
				JOINT Neck
				{
					OFFSET	 0.000000	 0.176489	 0.000000
					CHANNELS 3 Zrotation Xrotation Yrotation
					JOINT Head
					{
						OFFSET	 0.000000	 0.077941	 0.001747
						CHANNELS 3 Zrotation Xrotation Yrotation
						End Site
						{
							OFFSET	 0.000000	 0.077941	 0.001747
						}
					}
				}
				JOINT RightShoulder
				{
					OFFSET	-0.080363	 0.159706	-0.000306
					CHANNELS 3 Zrotation Xrotation Yrotation
					JOINT RightArm
					{
						OFFSET	 0.000000	 0.164196	 0.000000
						CHANNELS 3 Zrotation Xrotation Yrotation
						JOINT RightForeArm
						{
							OFFSET	 0.000000	 0.365611	 0.000000
							CHANNELS 3 Zrotation Xrotation Yrotation
							JOINT RightHand
							{
								OFFSET	 0.000000	 0.360648	 0.000000
								CHANNELS 3 Zrotation Xrotation Yrotation
								JOINT RightHandIndex1
								{
									OFFSET	 0.000000	 0.069977	 0.000000
									CHANNELS 3 Zrotation Xrotation Yrotation
									JOINT RightHandIndex2
									{
										OFFSET	 0.000000	 0.052305	 0.000000
										CHANNELS 3 Zrotation Xrotation Yrotation
										JOINT RightHandIndex3
										{
											OFFSET	 0.009002	 0.042196	 0.000782
											CHANNELS 3 Zrotation Xrotation Yrotation
											End Site
											{
												OFFSET	 0.009002	 0.042196	 0.000782
											}
										}
									}
								}
							}
						}
					}
				}
			}
		}
	}
}
MOTION
Frames:    13
Frame Time: 0.03333334
-0.016891	 1.255475	 0.115208	 4.578925	 0.233522	 173.978800	-170.793200	 16.047400	 7.598790	 2.435617	-24.746020	 1.110199	 46.044120	 46.663610	-62.956310	 4.912823	 28.009650	-6.307259	-172.836200	 5.043225	-1.771202	-1.740494	-19.413390	 1.882713	-57.273890	 58.391700	 63.816530	-0.375444	 31.170380	 1.631998	 1.251876	 4.060578	-6.730073	 9.353531	 7.445640	-3.774147	-7.906098	-5.207178	 13.467640	-112.572800	 3.140151	 88.315800	-5.298649	 50.415080	 30.741900	 19.708860	-1.018725	 0.745281	-3.459529	-3.884716	-67.507320	-8.025438	 12.502670	-5.831190	-7.228703	 12.665640	 2.804234	 4.963066	-4.014628	-0.346955	 1.528191	-13.929950	 1.347995	-1.988100	 8.879600	-24.954960	 109.137600	 0.665483	-88.590520	-11.828460	 64.103440	 11.388570	-5.068855	-0.468472	 41.403320	-11.287570	 8.880256	-76.006900	 2.021949	 8.325931	 8.960833	 15.202860	 20.243160	-6.342599	-8.239867	-2.131385	 0.447455
-0.016850	 1.255215	 0.115343	 4.538795	 0.099679	 173.952500	-170.824800	 16.237890	 7.606472	 2.446993	-24.847560	 1.115010	 46.089550	 46.654770	-63.046940	 4.912823	 28.009650	-6.307259	-172.850800	 5.321015	-1.783517	-1.766019	-19.676260	 1.874088	-57.394110	 58.483570	 63.973120	-0.375451	 31.170390	 1.632006	 1.252085	 3.944422	-6.759357	 9.093575	 7.249474	-3.718721	-7.634005	-4.990982	 13.536260	-112.572700	 3.140096	 88.315780	 0.132697	 52.274670	 26.549650	 12.066560	-0.631531	 0.634993	-0.005151	-4.370301	-67.564280	-8.025392	 12.502710	-5.831202	-7.228703	 12.665630	 2.804232	 4.963066	-4.014628	-0.346955	 1.528149	-13.929890	 1.348016	-1.979783	 8.922447	-24.939230	 109.137500	 0.665521	-88.590540	-11.714640	 64.076180	 11.291430	-5.025231	-0.464396	 41.403370	-11.024090	 8.985438	-76.119260	 2.021909	 8.325820	 8.960833	 15.202860	 20.243190	-6.342606	-8.239867	-2.131385	 0.447455
-0.016680	 1.255185	 0.115513	 4.447037	-0.058128	 173.957900	-170.888900	 16.391360	 7.614007	 2.440304	-24.787830	 1.112435	 46.062420	 46.601200	-63.023800	 4.912823	 28.009650	-6.307259	-172.911900	 5.596547	-1.799381	-1.784751	-19.868700	 1.867203	-57.496150	 58.528190	 64.105510	-0.375497	 31.170440	 1.632051	 1.201802	 3.795825	-6.833073	 8.796688	 7.048290	-3.697906	-7.348673	-4.781518	 13.647110	-112.572500	 3.139771	 88.315750	 5.428623	 53.721100	 22.351780	 5.093281	-0.268181	 0.580174	 3.108582	-4.834145	-67.709660	-8.025089	 12.502960	-5.831277	-7.228703	 12.665570	 2.804224	 4.963066	-4.014628	-0.346955	 1.527878	-13.929480	 1.348154	-1.971754	 8.966473	-24.913880	 109.137200	 0.665793	-88.590680	-11.610120	 64.088370	 11.204070	-4.979832	-0.460182	 41.402900	-10.759330	 9.120340	-76.334610	 2.021648	 8.325120	 8.960827	 15.202860	 20.243340	-6.342648	-8.239867	-2.131385	 0.447455
-0.016512	 1.255157	 0.115674	 4.355050	-0.210253	 173.964200	-170.954100	 16.537890	 7.622736	 2.433419	-24.726420	 1.110213	 46.035770	 46.547890	-63.000170	 4.912823	 28.009650	-6.307258	-172.974100	 5.863353	-1.813500	-1.803038	-20.056040	 1.859220	-57.597910	 58.570410	 64.236960	-0.375640	 31.170620	 1.632193	 1.151239	 3.653026	-6.936039	 8.499127	 6.852655	-3.695489	-7.066686	-4.582348	 13.800490	-112.571700	 3.138751	 88.315610	 5.378106	 53.898560	 22.418160	 5.044889	-0.265662	 0.579966	 2.730116	-5.081336	-67.959890	-8.024154	 12.503730	-5.831508	-7.228709	 12.665400	 2.804200	 4.963066	-4.014628	-0.346955	 1.527039	-13.928200	 1.348583	-1.963866	 9.013207	-24.879530	 109.136200	 0.666561	-88.591080	-11.504860	 64.106250	 11.118380	-4.935424	-0.456123	 41.400800	-10.483280	 9.286569	-76.651240	 2.020842	 8.322945	 8.960808	 15.202860	 20.243820	-6.342781	-8.239867	-2.131385	 0.447455
-0.016348	 1.255129	 0.115822	 4.264007	-0.355748	 173.971300	-171.020100	 16.677060	 7.633539	 2.426571	-24.665140	 1.108891	 46.011130	 46.494610	-62.978190	 4.912823	 28.009660	-6.307258	-173.036800	 6.119136	-1.824938	-1.820681	-20.236220	 1.849295	-57.698520	 58.609830	 64.366100	-0.375955	 31.171000	 1.632505	 1.100783	 3.517062	-7.066079	 8.207002	 6.663054	-3.711414	-6.793208	-4.395191	 13.992620	-112.569900	 3.136516	 88.315300	 5.320195	 54.068670	 22.487500	 5.000793	-0.263356	 0.579616	 2.331239	-5.324196	-68.299420	-8.022091	 12.505420	-5.832018	-7.228717	 12.665000	 2.804147	 4.963066	-4.014628	-0.346955	 1.525192	-13.925390	 1.349526	-1.956105	 9.063442	-24.838460	 109.134000	 0.668261	-88.591920	-11.398370	 64.130300	 11.035410	-4.893845	-0.452307	 41.395630	-10.197370	 9.478045	-77.065500	 2.019067	 8.318157	 8.960766	 15.202870	 20.244880	-6.343071	-8.239867	-2.131385	 0.447455
-0.016187	 1.255098	 0.115956	 4.172762	-0.495497	 173.981500	-171.088400	 16.810460	 7.647488	 2.419734	-24.604060	 1.108845	 45.988470	 46.441810	-62.957060	 4.912823	 28.009660	-6.307256	-173.100900	 6.366707	-1.832799	-1.837982	-20.412770	 1.836267	-57.802220	 58.645460	 64.498420	-0.376536	 31.171710	 1.633082	 1.049564	 3.387654	-7.223517	 7.919106	 6.474854	-3.745821	-6.526268	-4.216409	 14.222590	-112.566600	 3.132366	 88.314700	 5.256493	 54.235040	 22.556590	 4.957740	-0.261098	 0.579285	 1.910498	-5.563646	-68.720020	-8.018282	 12.508540	-5.832960	-7.228735	 12.664280	 2.804048	 4.963066	-4.014628	-0.346955	 1.521779	-13.920210	 1.351270	-1.948217	 9.119464	-24.792530	 109.129800	 0.671435	-88.593540	-11.292620	 64.160550	 10.959400	-4.852603	-0.448517	 41.385880	-9.897089	 9.692409	-77.579070	 2.015788	 8.309312	 8.960690	 15.202880	 20.246850	-6.343607	-8.239867	-2.131385	 0.447455
-0.016031	 1.255063	 0.116078	 4.079803	-0.632868	 173.995700	-171.160700	 16.942280	 7.666116	 2.413021	-24.543790	 1.110774	 45.968720	 46.388130	-62.938160	 4.912823	 28.009660	-6.307255	-173.167600	 6.611612	-1.835868	-1.855336	-20.589360	 1.818494	-57.911990	 58.677580	 64.637470	-0.377506	 31.172900	 1.634044	 0.996810	 3.262125	-7.409644	 7.633041	 6.282103	-3.799412	-6.262814	-4.041770	 14.490750	-112.561100	 3.125463	 88.313760	 5.183825	 54.401300	 22.627730	 4.914924	-0.258812	 0.578874	 1.463486	-5.801728	-69.218850	-8.011928	 12.513750	-5.834532	-7.228764	 12.663070	 2.803883	 4.963066	-4.014628	-0.346955	 1.516086	-13.911550	 1.354178	-1.939862	 9.184263	-24.743720	 109.122900	 0.676696	-88.596220	-11.185480	 64.197910	 10.890690	-4.812418	-0.444785	 41.369120	-9.573994	 9.926838	-78.198650	 2.010319	 8.294561	 8.960561	 15.202900	 20.250120	-6.344503	-8.239867	-2.131385	 0.447455
-0.015882	 1.255022	 0.116183	 3.986501	-0.763728	 174.015300	-171.236800	 17.068810	 7.690532	 2.406564	-24.485750	 1.115189	 45.952980	 46.334760	-62.922090	 4.912824	 28.009660	-6.307252	-173.236500	 6.848470	-1.832706	-1.872600	-20.764600	 1.794805	-58.029380	 58.704570	 64.785060	-0.378967	 31.174680	 1.635493	 0.943004	 3.144871	-7.619287	 7.355550	 6.085896	-3.871029	-6.007805	-3.872538	 14.788160	-112.552700	 3.115048	 88.312340	 5.101255	 54.566200	 22.698470	 4.875300	-0.256736	 0.578310	 0.998642	-6.032765	-69.771090	-8.002359	 12.521600	-5.836901	-7.228807	 12.661250	 2.803634	 4.963066	-4.014628	-0.346955	 1.507514	-13.898530	 1.358560	-1.930907	 9.259061	-24.695940	 109.112500	 0.684605	-88.600240	-11.079590	 64.241660	 10.833910	-4.774852	-0.441307	 41.343940	-9.229678	 10.170380	-78.909640	 2.002083	 8.272345	 8.960364	 15.202940	 20.255050	-6.345851	-8.239867	-2.131385	 0.447455
-0.015758	 1.255002	 0.116269	 3.893477	-0.895735	 174.039900	-171.315800	 17.193050	 7.722535	 2.399314	-24.420750	 1.122484	 45.941400	 46.274830	-62.907810	 4.912825	 28.009670	-6.307249	-173.308700	 7.080261	-1.821588	-1.888714	-20.927830	 1.763506	-58.144740	 58.724240	 64.929860	-0.381103	 31.177290	 1.637611	 0.890665	 3.030675	-7.855812	 7.085096	 5.873691	-3.961092	-5.755927	-3.699336	 15.119510	-112.540600	 3.099844	 88.310230	 5.005140	 54.742160	 22.771550	 4.835648	-0.254650	 0.577622	 0.502841	-6.264397	-70.379810	-7.988370	 12.533070	-5.840364	-7.228871	 12.658590	 2.803271	 4.963066	-4.014628	-0.346955	 1.494982	-13.879490	 1.364968	-1.920704	 9.349011	-24.651190	 109.097400	 0.696212	-88.606120	-10.970460	 64.289510	 10.788760	-4.737293	-0.437837	 41.306900	-8.848924	 10.423870	-79.730030	 1.990045	 8.239873	 8.960072	 15.202980	 20.262250	-6.347822	-8.239867	-2.131385	 0.447455
-0.015700	 1.254958	 0.116258	 3.851916	-0.923034	 174.063200	-171.360400	 17.222740	 7.747464	 2.397632	-24.405520	 1.131085	 45.945590	 46.256640	-62.909110	 4.912825	 28.009670	-6.307245	-173.344400	 7.150716	-1.803606	-1.896402	-21.005580	 1.737826	-58.222130	 58.724020	 65.023400	-0.383026	 31.179650	 1.639518	 0.880714	 3.025997	-8.115999	 6.903162	 5.752761	-4.076896	-5.557184	-3.584929	 15.482940	-112.529600	 3.086170	 88.308370	 5.014776	 54.844560	 22.749400	 4.827952	-0.254280	 0.577088	-0.005755	-6.371820	-71.091850	-7.975771	 12.543390	-5.843486	-7.228928	 12.656190	 2.802944	 4.963066	-4.014628	-0.346955	 1.483694	-13.862340	 1.370742	-1.912015	 9.430507	-24.594710	 109.083700	 0.706642	-88.611410	-11.002650	 64.252390	 10.867890	-4.732260	-0.437436	 41.273650	-8.404617	 10.670700	-80.625920	 1.979204	 8.210628	 8.959802	 15.203030	 20.268740	-6.349598	-8.239867	-2.131385	 0.447455
-0.015645	 1.254943	 0.116268	 3.838448	-0.919136	 174.060100	-171.370100	 17.214980	 7.743846	 2.396493	-24.395380	 1.128654	 45.938090	 46.255440	-62.901670	 4.912825	 28.009670	-6.307246	-173.353600	 7.158632	-1.808931	-1.898574	-21.027390	 1.741802	-58.235980	 58.731290	 65.039430	-0.382624	 31.179160	 1.639119	 0.882318	 3.032741	-8.382191	 6.779036	 5.756139	-4.196327	-5.431670	-3.566781	 15.884410	-112.531900	 3.089043	 88.308780	 5.054852	 54.870330	 22.731010	 4.827896	-0.254259	 0.577181	-0.442202	-6.416271	-72.002170	-7.978406	 12.541230	-5.842834	-7.228916	 12.656690	 2.803012	 4.963066	-4.014628	-0.346955	 1.486054	-13.865920	 1.369534	-1.911431	 9.449216	-24.488990	 109.086500	 0.704466	-88.610310	-11.031910	 64.212970	 10.893280	-4.732895	-0.437460	 41.280580	-8.093781	 10.974520	-81.510970	 1.981471	 8.216745	 8.959859	 15.203020	 20.267380	-6.349226	-8.239867	-2.131385	 0.447455
-0.015591	 1.254991	 0.116332	 3.850730	-0.902547	 174.020400	-171.340100	 17.180450	 7.703775	 2.394156	-24.374330	 1.111164	 45.911180	 46.262840	-62.878330	 4.912824	 28.009660	-6.307252	-173.336400	 7.122591	-1.846900	-1.894703	-20.988300	 1.784151	-58.166830	 58.753270	 64.955500	-0.379198	 31.174970	 1.635721	 0.890000	 3.026380	-8.650478	 6.710897	 5.898235	-4.312728	-5.389963	-3.660439	 16.329520	-112.551400	 3.113418	 88.312100	 5.107201	 54.816720	 22.743750	 4.828314	-0.254286	 0.578051	-0.779197	-6.412055	-73.152540	-8.000849	 12.522840	-5.837275	-7.228814	 12.660960	 2.803595	 4.963066	-4.014628	-0.346955	 1.506160	-13.896470	 1.359251	-1.921209	 9.387473	-24.320770	 109.110900	 0.685863	-88.600880	-11.021040	 64.191340	 10.816260	-4.732162	-0.437391	 41.340340	-7.973918	 11.361370	-82.366280	 2.000783	 8.268841	 8.960334	 15.202940	 20.255830	-6.346065	-8.239867	-2.131385	 0.447455
-0.015585	 1.254951	 0.116329	 3.850370	-0.905609	 174.018700	-171.338000	 17.191360	 7.702518	 2.395915	-24.390100	 1.111142	 45.912320	 46.269000	-62.885940	 4.912824	 28.009660	-6.307252	-173.334200	 7.137629	-1.848979	-1.897049	-21.012030	 1.785169	-58.180300	 58.760930	 64.972400	-0.379043	 31.174780	 1.635568	 0.899133	 3.023868	-8.952988	 6.585393	 5.995422	-4.432406	-5.286147	-3.708383	 16.784260	-112.552300	 3.114518	 88.312270	 5.214369	 54.798910	 22.660000	 4.829069	-0.254341	 0.578021	-1.192265	-6.413922	-74.127030	-8.001861	 12.522010	-5.837023	-7.228809	 12.661150	 2.803621	 4.963066	-4.014628	-0.346955	 1.507067	-13.897850	 1.358788	-1.922267	 9.404491	-24.206380	 109.112000	 0.685045	-88.600470	-10.987800	 64.163100	 10.790150	-4.732587	-0.437445	 41.343070	-7.721789	 11.728420	-83.312390	 2.001654	 8.271189	 8.960356	 15.202940	 20.255310	-6.345922	-8.239867	-2.131385	 0.447455
